<svg id="Слой_1" data-name="Слой 1" xmlns="http://www.w3.org/2000/svg" xmlns:xlink="http://www.w3.org/1999/xlink" viewBox="0 0 691.59 135.15"><defs><style>.cls-1,.cls-10,.cls-2,.cls-3,.cls-7,.cls-8,.cls-9{fill-rule:evenodd;}.cls-1{fill:url(#Безымянный_градиент);}.cls-2{fill:url(#Безымянный_градиент_2);}.cls-3{fill:#eeb107;}.cls-4{fill:url(#Безымянный_градиент_3);}.cls-5{fill:url(#Безымянный_градиент_4);}.cls-6{fill:#fffdf4;}.cls-7{fill:url(#Безымянный_градиент_5);}.cls-8{fill:#b72722;}.cls-9{fill:#e63d24;}.cls-10{fill:url(#Безымянный_градиент_6);}.cls-11{fill:#5b5b5b;}</style><linearGradient id="Безымянный_градиент" x1="-1494.78" y1="-14139.7" x2="6485.66" y2="-14127.74" gradientTransform="matrix(0.03, 0, 0, -0.03, 44.56, -332.7)" gradientUnits="userSpaceOnUse"><stop offset="0" stop-color="#ad070c"/><stop offset="1" stop-color="#e33003"/></linearGradient><linearGradient id="Безымянный_градиент_2" x1="2700.5" y1="-16505.87" x2="2295.52" y2="-11735.62" gradientTransform="matrix(0.03, 0, 0, -0.03, 119.51, -102.62)" gradientUnits="userSpaceOnUse"><stop offset="0" stop-color="#ffcc01"/><stop offset="1" stop-color="#ffb007"/></linearGradient><linearGradient id="Безымянный_градиент_3" x1="928.57" y1="-15562.38" x2="-407.59" y2="-13178.91" gradientTransform="matrix(0.03, 0, 0, -0.03, 44.56, -332.7)" gradientUnits="userSpaceOnUse"><stop offset="0" stop-color="#b3b3b3"/><stop offset="0.27" stop-color="#d2d2d2"/><stop offset="0.65" stop-color="#f2f2f2"/><stop offset="1" stop-color="#fff"/></linearGradient><linearGradient id="Безымянный_градиент_4" x1="3821.97" y1="-12835.99" x2="5244.25" y2="-15093.45" gradientTransform="matrix(0.03, 0, 0, -0.03, 119.51, -102.62)" xlink:href="#Безымянный_градиент_3"/><linearGradient id="Безымянный_градиент_5" x1="-334.14" y1="-15375.76" x2="1491.21" y2="-15373.02" xlink:href="#Безымянный_градиент"/><linearGradient id="Безымянный_градиент_6" x1="3654.63" y1="-12867.9" x2="1829.27" y2="-12870.64" xlink:href="#Безымянный_градиент"/></defs><g id="Слой_1-2" data-name="Слой_1"><polygon class="cls-1" points="46.44 3.83 228.31 2.73 215.04 99.24 195.66 132.84 2.29 133.15 11.95 62.9 46.44 3.83"/><path class="cls-2" d="M128.89,247.68l-28.63,49.55L93.1,349.32l23.7-.13-6.87,11.94,36.64,0h9.81v0h2.46L154.58,349l108.36-.66,13.75-23.62,10.71-78-76.68.47,7.59-13-47.36.07,4.45,13.12-46.51.28Zm176.81-17.6L291.92,330l-20.16,34.93L75,365.23l10-72.91,35.87-62,71.51-.11,113.35-.16Z" transform="translate(-74.95 -230.08)"/><polygon class="cls-3" points="196.81 134.83 193.04 129.3 211.3 97.99 224.34 3.61 230.75 0 216.97 99.9 196.81 134.83"/><polygon class="cls-3" points="6.42 131.35 15.31 66.53 51.75 5.07 45.89 0.28 10.02 62.24 0 135.15 6.42 131.35"/><polygon class="cls-4" points="78.82 108.1 99.29 108.07 71.94 29.55 25.46 108.18 48.3 108.14 67.3 75.17 78.82 108.1"/><path class="cls-5" d="M241.47,338l20.1,0,11.05-79.09-20.1,0-4.86,34.3c-3.13,2.57-8.49,3.81-13.18,3.82-5.47-.11-8.15-3-7.49-8.15l4.2-29.93-20.11,0L206.89,289c-2.44,18,9.31,27.13,23.27,27.11,6.25,0,12.17-2.25,15.07-4.49L241.47,338Z" transform="translate(-74.95 -230.08)"/><polygon class="cls-6" points="105.11 28.99 84.49 29.02 103.11 82.49 87.85 108.08 109.4 108.05 156.19 28.91 133.97 28.94 115.9 60.19 105.11 28.99"/><polygon class="cls-7" points="86.88 131 67.3 75.17 35.13 131.06 86.88 131"/><polygon class="cls-8" points="35.13 131.06 62.14 111.69 67.3 75.17 35.13 131.06"/><polygon class="cls-9" points="86.88 131 67.3 75.17 62.14 111.69 86.88 131"/><polygon class="cls-10" points="96.38 4.21 115.95 60.04 148.12 4.15 96.38 4.21"/><polygon class="cls-8" points="148.12 4.15 121.11 23.52 115.95 60.04 148.12 4.15"/><polygon class="cls-9" points="96.38 4.21 115.95 60.04 121.11 23.52 96.38 4.21"/><path class="cls-11" d="M326.17,279.14h12.42v5.52h-19V260.5h18.64V266H326.17v3.79h9.32V275h-9.32v4.13ZM355,284.66v-7.21l-1.73-1.94-6,9.15h-7.58l9.3-14.15-8.63-10h7.6l7.08,8.29V260.5h6.56v8.29l7.07-8.29h7.59l-8.63,10,9.32,14.15h-7.58l-6.05-9.15-1.72,1.94v7.21Zm30.88-5.52h12.42v5.52h-19V260.5H398V266H385.87v3.79h9.31V275h-9.31Zm13.8-.34h1.38l.38-.37a9.13,9.13,0,0,0,.83-1.2,15,15,0,0,0,1-2.08,17.49,17.49,0,0,0,.83-3,20.91,20.91,0,0,0,.38-4v-7.6h17.95v18.3h2.76v10.7h-6.57v-4.84H406.23v4.84h-6.56V278.8Zm11.39-10.7a21.47,21.47,0,0,1-.36,4,15.72,15.72,0,0,1-.86,3.05,21.59,21.59,0,0,1-1,2,6.34,6.34,0,0,1-.87,1.24l-.35.35h8.29V266.38h-4.84v1.72Zm39.51-7.6v24.16H444v-9.31h-8.79v9.31h-6.56V260.5h6.56v9H444v-9Zm12.09,18.64h12.42v5.52h-19V260.5h18.65V266H462.66v3.79H472V275h-9.32v4.13Zm28.13,5.52H479.23V260.5H490.1a9,9,0,0,1,6,1.9,5.61,5.61,0,0,1,2,6.38,4.85,4.85,0,0,1-.78,1.44,11.8,11.8,0,0,1-.9.94,3.79,3.79,0,0,1-.79.56l-.31.17.46.19a11.47,11.47,0,0,1,1,.6,6.49,6.49,0,0,1,1.32,1.05,5.81,5.81,0,0,1,1,1.62,5.34,5.34,0,0,1,.46,2.24,6.37,6.37,0,0,1-2.47,5,9.34,9.34,0,0,1-6.33,2.12Zm-5-5.17h4.49a2.6,2.6,0,0,0,1.87-.69,2.4,2.4,0,0,0,0-3.45,2.6,2.6,0,0,0-1.87-.69h-4.49v4.83Zm3.63-13.8h-3.63v4.13h3.63a2.28,2.28,0,0,0,1.63-.57,2.15,2.15,0,0,0,0-3,2.32,2.32,0,0,0-1.63-.56Zm36.24-5.19v24.16h-6.56v-9.31h-8.8v9.31h-6.56V260.5h6.56v9h8.8v-9Zm17.78,13.82-2.24-7.08L539,274.32Zm1.72,5.17h-7.94l-1.72,5.17h-7.08l9.16-24.16h7.24L554,284.66h-7.08l-1.73-5.17Zm30.89-19v24.16h-6.56v-7.59H566l-4.15,7.59H555l5-8.79a3.22,3.22,0,0,1-.45-.23,7,7,0,0,1-1-.78,8.35,8.35,0,0,1-1.26-1.34,7.23,7.23,0,0,1-1-2,8.13,8.13,0,0,1-.45-2.72,7.88,7.88,0,0,1,2.48-5.91,8.74,8.74,0,0,1,6.31-2.38Zm-12.92,6.56a2.27,2.27,0,0,0-.71,1.72,2.3,2.3,0,0,0,.72,1.73,2.57,2.57,0,0,0,1.85.69h4.5v-4.82H565A2.61,2.61,0,0,0,563.12,267.06Zm32.82.59a6.91,6.91,0,0,0,4.94,11.84,8.07,8.07,0,0,0,3.47-.77,7.67,7.67,0,0,0,2.36-1.57l.73-.78,3.79,4.15c-.09.13-.22.31-.4.53a11,11,0,0,1-1.21,1.16,12.67,12.67,0,0,1-2.06,1.48,12.93,12.93,0,0,1-2.91,1.15,13.83,13.83,0,0,1-3.77.51,13.29,13.29,0,0,1-9.55-3.76,12.31,12.31,0,0,1,0-18,13.29,13.29,0,0,1,9.55-3.76,13.11,13.11,0,0,1,3.69.5,11.36,11.36,0,0,1,2.89,1.22,18,18,0,0,1,2,1.41,7.27,7.27,0,0,1,1.22,1.22l.39.49-4,4.14-.27-.35a8.41,8.41,0,0,0-.77-.74,10.14,10.14,0,0,0-1.27-.94,7,7,0,0,0-1.72-.75,7.65,7.65,0,0,0-2.17-.32,6.72,6.72,0,0,0-4.94,2Zm18.74-7.15h10.87a9,9,0,0,1,6.48,2.4A8.61,8.61,0,0,1,632,275a9,9,0,0,1-6.47,2.4h-4.31v7.24h-6.56V260.5Zm10.52,5.88h-4v5.17h4a2.69,2.69,0,0,0,1.95-.77,2.44,2.44,0,0,0,0-3.63A2.73,2.73,0,0,0,625.2,266.38ZM646,267.65a7.25,7.25,0,0,0,0,9.87,6.83,6.83,0,0,0,9.6,0,7.27,7.27,0,0,0,0-9.87,6.86,6.86,0,0,0-9.6,0Zm14.33-4.08a12.31,12.31,0,0,1,0,18,14,14,0,0,1-19.08,0,12.31,12.31,0,0,1,0-18,14,14,0,0,1,19.08,0Zm14.27-3.07v7.43a3.77,3.77,0,0,0,1,2.77,3.62,3.62,0,0,0,2.7,1,7.25,7.25,0,0,0,2-.29,5.38,5.38,0,0,0,1.42-.6l.46-.32v-10h6.56v24.16h-6.56v-8.1a12.41,12.41,0,0,1-5.18,1,8.68,8.68,0,0,1-6.58-2.52q-2.4-2.52-2.4-7.14V260.5Zm41.59,0v24.16h-6.56v-9.31h-8.79v9.31h-6.56V260.5h6.56v9h8.79v-9Zm17.78,13.82-2.23-7.08-2.25,7.08Zm1.72,5.17H727.7L726,284.66h-7.08l9.15-24.16h7.25l9.15,24.16h-7.08l-1.74-5.17Zm30.9-19v24.16H760v-7.59h-3.45l-4.15,7.59h-6.91l5-8.79a3.89,3.89,0,0,1-.44-.23,6.38,6.38,0,0,1-1-.78,8.76,8.76,0,0,1-1.25-1.34,7.5,7.5,0,0,1-1-2,8.13,8.13,0,0,1-.45-2.72,7.85,7.85,0,0,1,2.49-5.91,8.74,8.74,0,0,1,6.31-2.38Zm-12.92,6.56a2.41,2.41,0,0,0,0,3.45,2.57,2.57,0,0,0,1.85.69H760v-4.82h-4.5A2.58,2.58,0,0,0,753.62,267.06ZM316.85,324.47h1.38l.37-.36a7.74,7.74,0,0,0,.84-1.21,15.36,15.36,0,0,0,1-2.07,17.52,17.52,0,0,0,.84-3,20.76,20.76,0,0,0,.38-4v-7.6h17.95v18.3h2.76v10.71h-6.57v-4.84H323.41v4.84h-6.56V324.47Zm11.39-10.7a21.32,21.32,0,0,1-.36,4,14.61,14.61,0,0,1-.87,3,22,22,0,0,1-1,2.05,6.21,6.21,0,0,1-.87,1.23l-.35.35h8.29V312.05h-4.84v1.72Zm24.88-.45a7.26,7.26,0,0,0,0,9.88,6.83,6.83,0,0,0,9.6,0,7.29,7.29,0,0,0,0-9.88,6.86,6.86,0,0,0-9.6,0Zm14.34-4.07a12.32,12.32,0,0,1,0,18,14,14,0,0,1-19.09,0,12.32,12.32,0,0,1,0-18,14,14,0,0,1,19.09,0Zm15.21,4.07a6.91,6.91,0,0,0,4.93,11.85,8,8,0,0,0,3.48-.78,7.92,7.92,0,0,0,2.36-1.57l.72-.77,3.79,4.14c-.09.14-.22.31-.4.54a12,12,0,0,1-1.21,1.16,13,13,0,0,1-2,1.47,13.2,13.2,0,0,1-2.92,1.16,13.83,13.83,0,0,1-3.77.51,13.25,13.25,0,0,1-9.55-3.77,12.3,12.3,0,0,1,0-18A13.9,13.9,0,0,1,391.3,306a11.44,11.44,0,0,1,2.88,1.21,19.46,19.46,0,0,1,2,1.42,6.91,6.91,0,0,1,1.22,1.21l.39.49-4,4.14c-.07-.08-.15-.2-.27-.34a7.21,7.21,0,0,0-.77-.74,12.23,12.23,0,0,0-1.26-.95,7.72,7.72,0,0,0-1.73-.74,7.32,7.32,0,0,0-2.17-.33,6.72,6.72,0,0,0-4.93,2Zm16.66-7.15h20v5.88h-6.75v18.29h-6.55V312.05h-6.73ZM433,320l-2.24-7.07L428.49,320Zm1.72,5.18h-7.94L425,330.34H418l9.16-24.17h7.24l9.15,24.17h-7.07l-1.74-5.17Zm23.12,5.17H446.25V306.17h10.87a9.05,9.05,0,0,1,6,1.91,5.69,5.69,0,0,1,2.28,4.48,5.54,5.54,0,0,1-.33,1.9,4.63,4.63,0,0,1-.77,1.44,9,9,0,0,1-.91.93,3.61,3.61,0,0,1-.78.57l-.31.16.46.2a10.64,10.64,0,0,1,1,.59,7.26,7.26,0,0,1,1.32,1,5.87,5.87,0,0,1,1,1.62,5.23,5.23,0,0,1,.47,2.24,6.41,6.41,0,0,1-2.47,5,9.39,9.39,0,0,1-6.33,2.12Zm-5-5.17h4.48a2.57,2.57,0,0,0,1.88-.7,2.4,2.4,0,0,0,0-3.45,2.61,2.61,0,0,0-1.88-.69H452.8v4.84Zm3.63-13.81H452.8v4.13h3.63a2.32,2.32,0,0,0,1.63-.56,2.15,2.15,0,0,0,0-3,2.28,2.28,0,0,0-1.63-.57Zm23.48,9.83-2.6,2.93v6.22h-6.56V306.17h6.56v9.32l7.94-9.32h7.6l-8.63,10,9.32,14.16h-7.6ZM508.2,320,506,312.92,503.72,320Zm1.72,5.18H502l-1.72,5.17h-7.07l9.15-24.17h7.25l9.15,24.17h-7.08l-1.74-5.17Zm18.81,5.17V306.17H546v5.88h-10.7v18.29Zm20.36-24.17H560a8.94,8.94,0,0,1,6.47,2.4,8.59,8.59,0,0,1,0,12.12,9,9,0,0,1-6.47,2.4h-4.31v7.25h-6.56V306.17Zm10.52,5.88h-4v5.18h4a2.71,2.71,0,0,0,1.95-.78,2.43,2.43,0,0,0,0-3.62A2.71,2.71,0,0,0,559.61,312.05Zm17.09-5.88,4.65,9.85,4-9.85h7.09l-8.47,17.95a13.52,13.52,0,0,1-3.64,4.75,7.9,7.9,0,0,1-5.15,1.81,9.45,9.45,0,0,1-1.61-.14,6.29,6.29,0,0,1-1.16-.27l-.35-.1v-5.7a5.61,5.61,0,0,0,2.07.34,4,4,0,0,0,2.32-.65,3.73,3.73,0,0,0,1.3-1.42l.36-.69-8.46-15.88Zm30.54,11.39.46.2a11.2,11.2,0,0,1,1,.6,7.06,7.06,0,0,1,1.31,1.11,6,6,0,0,1,1,1.73,6.17,6.17,0,0,1,.46,2.42,6.56,6.56,0,0,1-2.62,5.27,11.1,11.1,0,0,1-7.22,2.14,13.94,13.94,0,0,1-3.48-.43,11.86,11.86,0,0,1-2.82-1,21.11,21.11,0,0,1-2-1.21,8.77,8.77,0,0,1-1.29-1l-.42-.43,3.81-3.95c.15.15.39.36.69.61a9.16,9.16,0,0,0,1.87,1,6.69,6.69,0,0,0,2.78.63,4.28,4.28,0,0,0,2.67-.73,2.11,2.11,0,0,0,1-1.7c0-1.38-1.09-2.07-3.27-2.06h-3.12v-5.53h2.77a3.68,3.68,0,0,0,2.2-.53,1.67,1.67,0,0,0,.73-1.41,1.54,1.54,0,0,0-.76-1.33,4.24,4.24,0,0,0-2.34-.52,6.1,6.1,0,0,0-2.23.43,5.12,5.12,0,0,0-1.56.87l-.53.42-3.79-4a4.14,4.14,0,0,1,.34-.38,13.5,13.5,0,0,1,1.09-.87,10.79,10.79,0,0,1,1.82-1.11,13.9,13.9,0,0,1,2.57-.86,13.42,13.42,0,0,1,3.32-.41,10.07,10.07,0,0,1,6.61,2.09,6.14,6.14,0,0,1,2.54,4.82,5.26,5.26,0,0,1-.91,3.13,4.65,4.65,0,0,1-1.82,1.68l-.89.36Zm20,2.43L625,312.92,622.77,320Zm1.72,5.18H621l-1.72,5.17h-7.08l9.15-24.17h7.25l9.15,24.17h-7.08L629,325.17Z" transform="translate(-74.95 -230.08)"/></g></svg>